<svg width="104" height="41" viewBox="0 0 104 41" fill="none" xmlns="http://www.w3.org/2000/svg">
<path d="M24.5176 28.0092C24.5176 26.6669 24.2869 25.5134 23.8674 24.5487C23.448 23.5839 22.7559 22.745 21.7911 22.0529C20.8263 21.3607 19.8616 20.7945 18.8968 20.375C17.932 19.9555 16.6317 19.4732 14.9958 18.9488V11.6921C16.7575 12.3003 17.7643 13.4958 17.995 15.2576H24.0982C23.9304 12.6779 23.0075 10.6854 21.3507 9.2802C19.6728 7.875 17.5545 7.03608 14.9958 6.74245V3.44967H11.9757V6.7005C9.12332 6.88926 6.83725 7.68624 5.11745 9.09144C3.39765 10.5176 2.53775 12.4262 2.53775 14.8171C2.53775 16.0545 2.74748 17.1451 3.16695 18.068C3.58641 19.0117 4.25755 19.8297 5.1594 20.5008C6.06124 21.193 7.02601 21.7802 8.03272 22.2416C9.03943 22.703 10.3607 23.2064 11.9757 23.7517V31.4488C9.62668 30.9035 8.36829 29.5822 8.2005 27.4849H1.92953C2.05537 30.1275 3.06208 32.2248 4.94966 33.7559C6.81627 35.3079 9.16527 36.2097 11.9757 36.4824V40.0898H14.9958V36.5243C17.8901 36.2936 20.1971 35.4337 21.9169 33.9446C23.6367 32.4555 24.5176 30.4841 24.5176 28.0092ZM8.68289 14.6074C8.68289 12.9295 9.77349 11.9018 11.9757 11.5243V17.9631C9.77349 17.1242 8.68289 16.0126 8.68289 14.6074ZM14.9958 31.4908V24.8423C16.1074 25.3037 16.9463 25.7861 17.4916 26.3104C18.0369 26.8557 18.3305 27.5268 18.3305 28.3448C18.3305 29.2257 18.0159 29.9178 17.3867 30.4421C16.7575 30.9874 15.9606 31.323 14.9958 31.4908ZM29.1527 36H50.9438V28.8691H41.5268L47.0218 22.5562C47.693 21.8221 48.2173 21.172 48.6158 20.6057C49.0143 20.0604 49.4127 19.2844 49.8112 18.2777C50.2097 17.271 50.4195 16.2643 50.4195 15.2156C50.4195 12.6359 49.4127 10.5596 47.3993 8.98658C45.3859 7.41359 42.8691 6.61661 39.807 6.61661C36.6611 6.61661 34.0604 7.47651 32.026 9.15436C29.9916 10.8532 28.9849 13.2022 28.9849 16.2013H37.1435C37.1435 15.2366 37.3742 14.4606 37.8775 13.8943C38.3599 13.349 38.9891 13.0554 39.7651 13.0554C40.4362 13.0554 41.0235 13.2861 41.5268 13.7265C42.0092 14.1879 42.2609 14.7542 42.2609 15.4673C42.2609 16.5159 41.4639 17.8792 39.8909 19.557L29.1527 31.7005V36ZM65.5201 36.6082C68.8758 36.6082 71.6023 35.7903 73.7206 34.1544C75.8389 32.5185 76.9086 30.4421 76.9086 27.8834C76.9086 26.2265 76.4681 24.7794 75.5872 23.5419C74.7064 22.3255 73.4899 21.4027 71.9169 20.7945C74.6015 19.4102 75.9648 17.229 75.9648 14.2718C75.9648 12.0067 74.9581 10.182 72.9446 8.75587C70.9312 7.3297 68.4983 6.61661 65.646 6.61661C62.6258 6.61661 60.0881 7.43457 57.9908 9.02852C55.8935 10.6435 54.8658 12.7408 54.8658 15.2995H62.9824C62.9824 14.6703 63.2131 14.146 63.6955 13.6846C64.1569 13.2441 64.7232 13.0134 65.3943 13.0134C66.0654 13.0134 66.6527 13.2651 67.156 13.7265C67.6384 14.2089 67.8901 14.7961 67.8901 15.5092C67.8901 16.1804 67.6384 16.7466 67.156 17.25C66.6527 17.7534 66.0654 18.005 65.3943 18.005H61.8708V23.9824H65.3943C66.401 23.9824 67.198 24.297 67.8272 24.8842C68.4354 25.4925 68.75 26.2265 68.75 27.1074C68.75 27.9463 68.4564 28.6594 67.8691 29.2466C67.2819 29.8549 66.5268 30.1485 65.604 30.1485C64.7441 30.1485 64.031 29.8549 63.4648 29.2257C62.8775 28.5965 62.6049 27.8205 62.6049 26.8977H54.4463C54.4463 29.8339 55.453 32.1829 57.4664 33.9446C59.4799 35.7273 62.1644 36.6082 65.5201 36.6082ZM82.6132 36H91.0235L99.6644 11.5243V7.22483H79.8658V14.5235H90.3733L82.6132 36Z" fill="#EEEEEE"/>
<path d="M100 12.0806L4.698 33.8926" stroke="#620509" stroke-width="7" stroke-linecap="round" stroke-linejoin="round"/>
</svg>
