<svg xmlns="http://www.w3.org/2000/svg" viewBox="0 0 105 41" width="105" height="41" fill="none"><title>Previous fee of $249</title><path fill="#EEE" d="M24.518 28.01c0-1.343-.231-2.497-.65-3.461-.42-.965-1.112-1.804-2.077-2.496-.965-.692-1.93-1.259-2.894-1.678-.965-.42-2.265-.902-3.901-1.426v-7.257c1.761.608 2.768 1.804 2.999 3.566h6.103c-.168-2.58-1.09-4.573-2.747-5.978-1.678-1.405-3.796-2.244-6.355-2.538V3.45h-3.02V6.7c-2.853.19-5.139.986-6.859 2.391-1.72 1.427-2.58 3.335-2.58 5.726 0 1.238.21 2.328.63 3.251.42.944 1.09 1.762 1.992 2.433.902.692 1.867 1.28 2.874 1.74 1.006.462 2.328.965 3.943 1.51v7.698c-2.35-.546-3.608-1.867-3.776-3.964H1.93c.125 2.643 1.132 4.74 3.02 6.27 1.866 1.553 4.215 2.455 7.026 2.727v3.608h3.02v-3.566c2.894-.23 5.201-1.09 6.92-2.58 1.72-1.489 2.602-3.46 2.602-5.935ZM8.683 14.606c0-1.677 1.09-2.705 3.293-3.083v6.44c-2.203-.84-3.293-1.951-3.293-3.357Zm6.313 16.884v-6.649c1.111.462 1.95.944 2.496 1.468.545.546.838 1.217.838 2.035 0 .88-.314 1.573-.943 2.097-.63.545-1.426.881-2.391 1.049ZM29.153 36h21.79v-7.13h-9.416l5.495-6.314a20.005 20.005 0 0 0 1.594-1.95c.398-.546.797-1.322 1.195-2.328.399-1.007.608-2.014.608-3.062 0-2.58-1.006-4.656-3.02-6.23-2.013-1.572-4.53-2.37-7.592-2.37-3.146 0-5.747.86-7.781 2.538-2.034 1.7-3.041 4.048-3.041 7.047h8.159c0-.964.23-1.74.733-2.307.483-.545 1.112-.839 1.888-.839.671 0 1.258.231 1.762.671.482.462.734 1.028.734 1.741 0 1.049-.797 2.412-2.37 4.09L29.153 31.701V36Zm48.91-12.626h-2.874V7.224h-5.202L53.964 23.983v5.621H67.45V36h7.739v-6.397h2.873v-6.229Zm-15.815.21 5.411-5.83v5.83h-5.41ZM92.114 6.617c-3.104 0-5.767 1.027-7.99 3.062-2.224 2.034-3.335 4.446-3.335 7.214 0 2.517.922 4.698 2.768 6.544 1.846 1.846 4.027 2.768 6.586 2.768.482 0 .86-.02 1.111-.083L85.844 36h8.808l6.753-12.206c1.301-2.328 1.972-4.614 1.972-6.859 0-2.768-1.112-5.18-3.314-7.235-2.223-2.056-4.866-3.083-7.949-3.083Zm-.042 7.298c.86 0 1.594.315 2.223.923.608.63.923 1.363.923 2.223 0 .86-.315 1.594-.923 2.202a3.01 3.01 0 0 1-2.223.923c-.86 0-1.594-.293-2.202-.923-.63-.608-.923-1.342-.923-2.202 0-.86.294-1.594.923-2.223.608-.608 1.342-.923 2.202-.923Z"></path><path stroke="#AD242A" stroke-linecap="round" stroke-linejoin="round" stroke-width="7" d="M100 12.08 4.698 33.894"></path></svg>