<svg width="269" height="175" viewBox="0 0 269 175" fill="none" xmlns="http://www.w3.org/2000/svg">
<path d="M55.3435 2.4823L10.2904 37.9124C8.18528 39.5679 6.83217 41.9985 6.53409 44.6599L0.480775 98.7074C0.173958 101.447 1.01157 104.191 2.7957 106.293L42.3442 152.872C44.0459 154.876 46.4684 156.13 49.0875 156.361L244.564 173.623C250.056 174.108 254.904 170.057 255.403 164.567L267.601 30.3929C268.098 24.9186 264.084 20.0689 258.613 19.5349L62.4966 0.390149C59.9318 0.139766 57.3692 0.889256 55.3435 2.4823Z" fill="url(#paint0_linear_83_221)"/>
<path d="M107.378 97.1514C107.716 93.8573 107.44 90.9684 106.653 88.4951C105.867 86.0219 104.38 83.7888 102.186 81.8475C99.9926 79.9061 97.7675 78.2735 95.5055 77.0013C93.2434 75.729 90.1736 74.2179 86.2909 72.5193L88.1175 54.7105C92.288 56.6466 94.4577 59.8338 94.5804 64.2154L109.558 65.7517C109.796 59.3786 108.033 54.2566 104.32 50.391C100.556 46.5201 95.569 43.928 89.3635 42.5634L90.1923 34.4825L82.7805 33.7223L81.9622 41.7002C74.9147 41.4455 69.1038 42.8259 64.5295 45.8416C59.9499 48.9087 57.3592 53.376 56.7573 59.2437C56.4459 62.2805 56.686 65.0097 57.4832 67.38C58.275 69.8018 59.7162 71.9781 61.7605 73.8522C63.7995 75.7777 66.0193 77.4617 68.3738 78.8475C70.7282 80.2332 73.8442 81.8011 77.6702 83.5459L75.7327 102.436C70.1052 100.506 67.3496 96.9467 67.4657 91.7574L52.076 90.1789C51.7196 96.6959 53.6623 102.096 57.9093 106.329C62.0995 110.608 67.6372 113.412 74.4656 114.789L73.5576 123.642L80.9694 124.402L81.8669 115.652C89.0279 115.814 94.9061 114.285 99.5015 111.063C104.097 107.842 106.755 103.225 107.378 97.1514ZM71.891 60.2758C72.3134 56.1582 75.2485 53.9106 80.748 53.5385L79.1273 69.34C73.934 66.7268 71.5373 63.7244 71.891 60.2758ZM83.1339 103.299L84.8074 86.9826C87.4192 88.3947 89.3566 89.7897 90.5629 91.2138C91.7639 92.6893 92.3155 94.4102 92.1096 96.4176C91.8879 98.5794 90.9416 100.199 89.2655 101.327C87.5841 102.507 85.5438 103.13 83.1339 103.299ZM141.912 122.019C150.147 122.863 157.044 121.542 162.655 118.061C168.265 114.579 171.413 109.753 172.057 103.473C172.474 99.4072 171.757 95.7449 169.907 92.4864C168.051 89.2794 165.298 86.7085 161.591 84.8199C168.528 82.0985 172.422 77.0887 173.167 69.8314C173.737 64.2725 171.726 59.5412 167.144 55.5344C162.561 51.5276 156.77 49.1652 149.77 48.4472C142.358 47.687 135.925 49.0555 130.376 52.4394C124.823 55.8747 121.773 60.7631 121.129 67.0425L141.048 69.0856C141.206 67.5414 141.904 66.3127 143.204 65.3018C144.448 64.3371 145.895 63.9134 147.542 64.0824C149.189 64.2513 150.567 65.0168 151.686 66.2758C152.749 67.5811 153.219 69.0856 153.039 70.8356C152.87 72.4827 152.11 73.809 150.8 74.9229C149.438 76.0315 147.933 76.5013 146.286 76.3324L137.639 75.4455L136.134 90.1146L144.781 91.0015C147.252 91.2549 149.129 92.2276 150.525 93.8272C151.864 95.4729 152.452 97.3536 152.23 99.5154C152.019 101.574 151.119 103.25 149.53 104.544C147.935 105.888 146.009 106.419 143.744 106.187C141.634 105.97 139.958 105.07 138.726 103.384C137.443 101.692 136.97 99.7185 137.202 97.4538L117.18 95.4002C116.441 102.606 118.32 108.624 122.818 113.455C127.31 118.336 133.677 121.174 141.912 122.019ZM207.434 128.739C215.309 129.547 222.285 127.454 228.368 122.408C234.446 117.414 237.917 110.957 238.725 103.082L240.424 86.5082C241.227 78.6847 239.139 71.6569 234.202 65.5332C229.265 59.4095 222.859 55.9438 214.984 55.136C207.109 54.3283 200.132 56.4214 194.003 61.4101C187.874 66.3988 184.403 72.8563 183.601 80.6799L181.901 97.2534C181.093 105.128 183.181 112.156 188.17 118.285C193.153 124.466 199.559 127.931 207.434 128.739ZM209.298 110.57C207.136 110.348 205.368 109.335 203.992 107.529C202.617 105.724 202.077 103.38 202.373 100.498L204.295 81.7622C204.574 79.0342 205.522 76.8949 207.246 75.3033C208.918 73.7064 210.861 73.0214 213.125 73.2537C215.39 73.486 217.153 74.5511 218.472 76.4027C219.739 78.249 220.278 80.5929 219.993 83.3724L218.072 102.108C217.776 104.99 216.72 107.17 214.956 108.654C213.191 110.137 211.305 110.776 209.298 110.57Z" fill="#EEEEEE"/>
<circle cx="18.5" cy="70.5" r="5.5" fill="#EEEEEE"/>
<defs>
<linearGradient id="paint0_linear_83_221" x1="134.25" y1="32" x2="134.25" y2="345" gradientUnits="userSpaceOnUse">
<stop stop-color="#AD242A"/>
<stop offset="1" stop-color="#111111"/>
</linearGradient>
</defs>
</svg>
