<svg width="104" height="41" viewBox="0 0 104 41" fill="none" xmlns="http://www.w3.org/2000/svg">
<path d="M24.5176 28.0092C24.5176 26.6669 24.2869 25.5134 23.8674 24.5487C23.448 23.5839 22.7559 22.745 21.7911 22.0529C20.8263 21.3607 19.8616 20.7945 18.8968 20.375C17.932 19.9555 16.6317 19.4732 14.9958 18.9488V11.6921C16.7575 12.3003 17.7643 13.4958 17.995 15.2576H24.0982C23.9304 12.6779 23.0075 10.6854 21.3507 9.2802C19.6728 7.875 17.5545 7.03608 14.9958 6.74245V3.44967H11.9757V6.7005C9.12332 6.88926 6.83725 7.68624 5.11745 9.09144C3.39765 10.5176 2.53775 12.4262 2.53775 14.8171C2.53775 16.0545 2.74748 17.1451 3.16695 18.068C3.58641 19.0117 4.25755 19.8297 5.1594 20.5008C6.06124 21.193 7.02601 21.7802 8.03272 22.2416C9.03943 22.703 10.3607 23.2064 11.9757 23.7517V31.4488C9.62668 30.9035 8.36829 29.5822 8.2005 27.4849H1.92953C2.05537 30.1275 3.06208 32.2248 4.94966 33.7559C6.81627 35.3079 9.16527 36.2097 11.9757 36.4824V40.0898H14.9958V36.5243C17.8901 36.2936 20.1971 35.4337 21.9169 33.9446C23.6367 32.4555 24.5176 30.4841 24.5176 28.0092ZM8.68289 14.6074C8.68289 12.9295 9.77349 11.9018 11.9757 11.5243V17.9631C9.77349 17.1242 8.68289 16.0126 8.68289 14.6074ZM14.9958 31.4908V24.8423C16.1074 25.3037 16.9463 25.7861 17.4916 26.3104C18.0369 26.8557 18.3305 27.5268 18.3305 28.3448C18.3305 29.2257 18.0159 29.9178 17.3867 30.4421C16.7575 30.9874 15.9606 31.323 14.9958 31.4908ZM39.3876 6.65856C36.4933 6.65856 33.9765 7.6443 31.8582 9.5948C29.7399 11.5663 28.6913 13.8943 28.6913 16.5789C28.6913 19.0537 29.5931 21.172 31.4388 22.9757C33.2634 24.7794 35.4446 25.6812 37.9614 25.6812C38.9681 25.6812 39.807 25.5554 40.4992 25.3037L34.6686 36H41.0654L48.1963 22.8918C49.3708 20.8154 49.9581 18.7181 49.9581 16.5789C49.9581 13.8943 48.9094 11.5872 46.854 9.61577C44.7987 7.6443 42.3029 6.65856 39.3876 6.65856ZM39.3456 11.9857C40.646 11.9857 41.7575 12.4471 42.6804 13.37C43.6032 14.2928 44.0646 15.4044 44.0646 16.7047C44.0646 17.9841 43.6032 19.0747 42.6804 19.9555C41.7575 20.8364 40.646 21.2768 39.3456 21.2768C38.0453 21.2768 36.9547 20.8364 36.0319 19.9346C35.1091 19.0537 34.6686 17.9631 34.6686 16.7047C34.6686 15.4044 35.1091 14.2928 36.0319 13.37C36.9547 12.4471 38.0453 11.9857 39.3456 11.9857ZM76.2794 24.1082H72.7559V7.22483H68.9807L53.1669 24.5696V28.6594H67.177V36H72.7559V28.6594H76.2794V24.1082ZM59.2282 24.276L67.3028 14.8591V24.276H59.2282ZM90.2265 36.5663C93.0579 36.5663 95.4698 35.6854 97.4413 33.9237C99.4127 32.1619 100.419 30.0017 100.419 27.443C100.419 25.7441 99.979 24.1921 99.0982 22.8079C98.2173 21.4237 96.9799 20.4169 95.3859 19.8087C97.693 18.5503 98.8674 16.6628 98.8674 14.104C98.8674 12.0067 98.0285 10.245 96.3716 8.81879C94.6938 7.39262 92.6594 6.65856 90.2265 6.65856C87.7936 6.65856 85.7383 7.37165 84.0604 8.77685C82.3825 10.182 81.5017 11.8809 81.4597 13.8733C81.4178 15.1737 81.7324 16.3272 82.3616 17.3758C82.9908 18.4245 83.8716 19.2425 85.0252 19.8087C83.4312 20.4169 82.1728 21.4027 81.2919 22.7659C80.4111 24.1502 79.9497 25.6812 79.9287 27.401C79.8867 30.0227 80.8935 32.2039 82.9069 33.9446C84.9203 35.7064 87.3532 36.5663 90.2265 36.5663ZM90.1846 17.9631C89.2617 17.9631 88.4857 17.6485 87.8565 17.0193C87.2064 16.3901 86.8918 15.6141 86.8918 14.6913C86.8918 13.8104 87.2064 13.0554 87.8565 12.4262C88.4857 11.797 89.2617 11.4824 90.1846 11.4824C91.1074 11.4824 91.8834 11.797 92.5126 12.4262C93.1418 13.0554 93.4564 13.8104 93.4564 14.6913C93.4564 15.6141 93.1418 16.3901 92.5126 17.0193C91.8834 17.6485 91.1074 17.9631 90.1846 17.9631ZM90.1846 31.2391C88.9471 31.2391 87.8985 30.8406 87.0596 30.0017C86.2206 29.1628 85.8012 28.156 85.8012 26.9396C85.8221 25.7441 86.2626 24.7374 87.1015 23.9195C87.9404 23.1015 88.9681 22.682 90.1846 22.682C91.38 22.682 92.3867 23.1015 93.2257 23.9195C94.0646 24.7374 94.4841 25.7441 94.4841 26.9396C94.4841 28.156 94.0646 29.1628 93.2257 30.0017C92.3867 30.8406 91.38 31.2391 90.1846 31.2391Z" fill="#EEEEEE"/>
<path d="M100 12.0806L4.698 33.8926" stroke="#AD242A" stroke-width="7" stroke-linecap="round" stroke-linejoin="round"/>
</svg>
