<svg xmlns="http://www.w3.org/2000/svg" viewBox="0 0 31 31" width="31" height="31" fill="none"><title>SMT Mastery &amp; Academy's Instagram</title><path fill="#AD242A" d="M9.471.71C4.698.71.816 4.596.816 9.37V21.74c0 4.773 3.886 8.655 8.66 8.655h12.369c4.773 0 8.655-3.886 8.655-8.66V9.365C30.5 4.592 26.614.71 21.84.71H9.47Zm14.845 4.947a1.237 1.237 0 1 1-.001 2.475 1.237 1.237 0 0 1 0-2.475Zm-8.658 2.474c4.093 0 7.421 3.328 7.421 7.421s-3.328 7.421-7.421 7.421-7.421-3.328-7.421-7.42c0-4.094 3.328-7.422 7.421-7.422Zm0 2.474a4.947 4.947 0 1 0 0 9.894 4.947 4.947 0 0 0 0-9.894Z"></path></svg>