<svg xmlns="http://www.w3.org/2000/svg" viewBox="0 0 29 33" width="29" height="33" fill="none"><title>SMT Mastery &amp; Academy's Twitch</title><path fill="#AD242A" d="M26.898-.125H2.523A2.44 2.44 0 0 0 .085 2.313V24.25a2.44 2.44 0 0 0 2.438 2.438H4.96v4.875a1.219 1.219 0 0 0 2 .936l6.973-5.812h6.43c.57 0 1.122-.2 1.56-.565l6.535-5.445a2.433 2.433 0 0 0 .877-1.873V2.313a2.44 2.44 0 0 0-2.437-2.438ZM14.71 15.719a1.219 1.219 0 1 1-2.437 0V8.406a1.22 1.22 0 0 1 2.437 0v7.313Zm7.313 0a1.219 1.219 0 1 1-2.438 0V8.406a1.22 1.22 0 0 1 2.438 0v7.313Z"></path></svg>