<svg xmlns="http://www.w3.org/2000/svg" viewBox="0 0 32 27" width="32" height="27" fill="none"><title>SMT Mastery &amp; Academy's Youtube</title><path fill="#AD242A" d="M15.763-.053c-5.178 0-11.897 1.298-11.897 1.298l-.017.019C1.49 1.64-.316 3.667-.316 6.13v14.845a4.947 4.947 0 0 0 4.177 4.877l.005.007s6.72 1.3 11.897 1.3c5.177 0 11.897-1.3 11.897-1.3l.003-.002a4.947 4.947 0 0 0 4.179-4.882V6.132a4.947 4.947 0 0 0-4.177-4.88l-.005-.008S20.94-.052 15.763-.052Zm-3.71 7.914 9.894 5.692-9.895 5.69V7.862Z"></path></svg>